<?xml version="1.0" encoding="UTF-8" standalone="no"?>
<!-- Created with Inkscape (http://www.inkscape.org/) -->

<svg
   width="1080mm"
   height="1080mm"
   viewBox="0 0 1080 1080"
   version="1.1"
   id="svg1"
   xml:space="preserve"
   sodipodi:docname="logo.svg"
   inkscape:version="1.4.2 (f4327f4, 2025-05-13)"
   xmlns:inkscape="http://www.inkscape.org/namespaces/inkscape"
   xmlns:sodipodi="http://sodipodi.sourceforge.net/DTD/sodipodi-0.dtd"
   xmlns:xlink="http://www.w3.org/1999/xlink"
   xmlns="http://www.w3.org/2000/svg"
   xmlns:svg="http://www.w3.org/2000/svg"><sodipodi:namedview
     id="namedview1"
     pagecolor="#ffffff"
     bordercolor="#000000"
     borderopacity="0.25"
     inkscape:showpageshadow="2"
     inkscape:pageopacity="0.0"
     inkscape:pagecheckerboard="0"
     inkscape:deskcolor="#d1d1d1"
     inkscape:document-units="mm"
     inkscape:zoom="0.16"
     inkscape:cx="778.125"
     inkscape:cy="2790.625"
     inkscape:window-width="3840"
     inkscape:window-height="2054"
     inkscape:window-x="1909"
     inkscape:window-y="-11"
     inkscape:window-maximized="1"
     inkscape:current-layer="layer2" /><defs
     id="defs1"><linearGradient
       id="linearGradient40"
       inkscape:collect="always"><stop
         style="stop-color:#000000;stop-opacity:1;"
         offset="0"
         id="stop40" /><stop
         style="stop-color:#000000;stop-opacity:0;"
         offset="1"
         id="stop41" /></linearGradient><linearGradient
       id="linearGradient38"
       inkscape:collect="always"><stop
         style="stop-color:#000000;stop-opacity:1;"
         offset="0"
         id="stop38" /><stop
         style="stop-color:#000000;stop-opacity:0;"
         offset="1"
         id="stop39" /></linearGradient><linearGradient
       id="linearGradient35"
       inkscape:collect="always"><stop
         style="stop-color:#000000;stop-opacity:1;"
         offset="0"
         id="stop35" /><stop
         style="stop-color:#000000;stop-opacity:0;"
         offset="1"
         id="stop36" /></linearGradient><linearGradient
       id="linearGradient33"
       inkscape:collect="always"><stop
         style="stop-color:#000000;stop-opacity:1;"
         offset="0"
         id="stop33" /><stop
         style="stop-color:#000000;stop-opacity:0;"
         offset="1"
         id="stop34" /></linearGradient><linearGradient
       inkscape:collect="always"
       xlink:href="#linearGradient33"
       id="linearGradient34"
       x1="1159.2014"
       y1="1259.4808"
       x2="74.835457"
       y2="296.34845"
       gradientUnits="userSpaceOnUse" /><linearGradient
       inkscape:collect="always"
       xlink:href="#linearGradient35"
       id="linearGradient36"
       x1="670.52582"
       y1="820.19672"
       x2="228.99655"
       y2="375.67404"
       gradientUnits="userSpaceOnUse" /><linearGradient
       inkscape:collect="always"
       xlink:href="#linearGradient38"
       id="linearGradient39"
       x1="101.02786"
       y1="1079.8759"
       x2="778.28882"
       y2="397.37631"
       gradientUnits="userSpaceOnUse" /><linearGradient
       inkscape:collect="always"
       xlink:href="#linearGradient40"
       id="linearGradient41"
       x1="541.80878"
       y1="619.63763"
       x2="540.31207"
       y2="463.23154"
       gradientUnits="userSpaceOnUse" /></defs><g
     inkscape:groupmode="layer"
     id="layer2"
     inkscape:label="logo"><path
       style="fill:#dedede;fill-opacity:1;stroke:none;stroke-width:30;stroke-dasharray:none;stroke-opacity:1"
       d="m 17.991666,91.016666 8.466667,-32.808333 19.05,-21.166667 31.749999,-20.108333 25.399998,-2.116667 873.12499,3.175 25.39998,2.116667 31.75,11.641667 13.7584,19.049999 17.9916,26.458333 2.1167,27.516668 -1.0583,887.94165 -10.5834,27.51665 -25.4,25.4 -21.1666,12.7 -32.80838,10.5834 -37.04167,-1.0584 -842.433318,-1.0583 -33.866666,-8.4667 -26.458333,-14.8166 -14.816667,-24.3417 -6.35,-39.15835 z"
       id="path32"
       inkscape:label="background" /><g
       id="g27"
       inkscape:label="briefcase"
       style="display:inline"><path
         id="rect26"
         style="display:inline;opacity:1;fill:#8acb71;stroke-width:0.264583"
         inkscape:label="briefcase-background"
         d="m 219.26775,358.46184 v 127.22014 h 30.68288 V 757.33517 H 826.93195 V 485.68198 h 35.92081 V 358.46184 Z m 279.88473,89.054 h 83.81555 v 85.31262 h -83.81555 z" /><path
         style="display:inline;opacity:0.5;fill:url(#linearGradient34);fill-opacity:1;stroke:none;stroke-width:30;stroke-dasharray:none;stroke-opacity:1"
         d="m 227.49982,350.97833 621.13436,-0.74834 21.70229,20.20556 -2.24507,90.55092 -5.98684,18.70888 -26.94074,8.98024 -5.23849,249.2021 -13.47039,22.45064 -17.21215,2.24507 -523.09992,0.74837 -21.70228,-13.47039 -5.23849,-16.4638 V 489.42394 l -34.42431,-9.72859 -2.24507,-109.2598 z"
         id="path33"
         inkscape:label="gradient" /><rect
         style="fill:#ffd66a;fill-opacity:1;stroke-width:0.264583"
         id="rect27"
         width="97.28611"
         height="93.544327"
         x="492.41736"
         y="443.02597"
         inkscape:label="buckle-background" /><rect
         style="display:inline;fill:url(#linearGradient41);fill-opacity:1;stroke-width:0.264583;opacity:0.453"
         id="rect39"
         width="97.28611"
         height="93.544327"
         x="492.41736"
         y="443.02597"
         inkscape:label="buckle-gradient" /><path
         id="rect4"
         style="stroke-width:0.264583"
         inkscape:label="briefcase-border"
         d="m 442.84739,254.24288 v 0.0155 c -1.6544,-0.14674 -42.17539,0.0844 -47.73972,43.85727 v 35.70273 H 239.8019 v 5.2e-4 c -0.24347,-0.003 -1.07782,-0.0345 -2.35903,-0.01 -9.38312,0.18049 -42.73082,3.35597 -43.42112,42.61135 0.0112,0.004 0.0224,0.009 0.0336,0.0129 v 83.86155 c -0.25324,5.87905 -3.41791,43.7573 35.92804,42.80411 V 730.4133 h 0.0279 c 0.0248,3.46539 3.70177,46.08519 49.06316,47.0054 v 0.003 h 522.14849 v -0.0589 c 3.19758,0.3788 44.10925,3.74628 48.67041,-46.35428 h 0.12299 V 502.0045 c 13.4714,-0.0151 39.28815,-4.24044 35.36115,-41.69565 h 0.002 v -83.94113 h -0.004 l 5.2e-4,-5.1e-4 c -0.4911,-38.87937 -34.22932,-42.3272 -43.50226,-42.55038 -1.24221,-0.0299 -2.0453,-0.002 -2.27066,0.006 v -0.005 H 684.35048 V 298.1151 h -0.0434 c -6.55273,-39.95309 -33.92479,-43.53445 -42.92245,-43.77407 -1.06592,-0.0284 -1.874,-0.01 -2.35903,5.2e-4 v -0.0992 z m 0,34.47386 v 0.0284 h 196.1782 v -0.0103 c 8.46865,0.13078 9.17867,7.37749 9.04183,9.38082 h -0.0145 v 35.70273 H 431.40519 v -35.70273 h -0.0134 c -0.13999,-0.8103 1.25166,-8.97027 11.45563,-9.39891 z m -205.02986,78.29135 c 0.6272,0.008 1.28816,0.0481 1.98437,0.12299 v 0.009 h 599.76856 c 5e-4,10e-4 10e-4,0.002 0.002,0.004 13.18974,-1.12254 13.2074,6.79364 13.301,9.22579 8.5e-4,0.0223 0.002,0.0444 0.003,0.0667 v 83.73494 c -7.8e-4,0.0232 -7.9e-4,0.0466 0,0.0703 v 0.0672 h 0.002 c 0.0112,1.23604 -1.12611,9.30974 -11.78739,8.58449 v -0.001 h -0.0119 c -0.003,-1.7e-4 -0.005,-3.4e-4 -0.008,-5.2e-4 -2.8e-4,1.8e-4 -7.5e-4,3.5e-4 -0.001,5.2e-4 h -234.7232 v -7.73545 h -0.001 c 2.61296,-35.92342 -27.9159,-38.76196 -36.52956,-38.91028 -0.84427,-0.0145 -1.4781,-0.003 -1.8495,0.005 v -0.0698 h -55.71649 c -0.0278,-0.002 -0.0551,-0.004 -0.0822,-0.004 -0.0364,-5.8e-4 -0.0724,1.8e-4 -0.10749,0.003 -0.004,3.5e-4 -0.009,6.9e-4 -0.0129,10e-4 h -0.015 v 0.001 c -2.49453,0.17452 -37.80912,-1.06128 -38.67516,38.6767 h -0.002 v 8.6279 H 237.8692 c -0.0111,-3.4e-4 -0.0219,-5.1e-4 -0.0326,-5.1e-4 -0.021,0 -0.043,1.8e-4 -0.0661,5.1e-4 h -0.0517 v 10e-4 c -1.92934,0.0421 -10.29354,0.91159 -11.18846,-9.17981 h 0.0284 v -83.8693 c 6.9e-4,-2.8e-4 0.001,-5.1e-4 0.001,-5.1e-4 0.0123,-2.54844 1.84958,-9.5529 11.25772,-9.43095 z m 331.7198,84.58553 c 7.28461,0.30447 6.24638,7.17291 6.1836,9.56324 h -0.0186 V 515.059 c -0.014,0.0151 -0.0279,0.0303 -0.0419,0.0455 0.0152,0.1366 0.0291,0.27152 0.0419,0.40514 v 0.0935 h 0.009 c 1.05781,11.55221 -6.98937,11.90724 -9.82679,11.91504 v -0.014 h -51.93946 c -0.004,-0.003 -0.008,-0.005 -0.0124,-0.008 -9.74734,-0.94053 -9.09195,-8.57822 -9.34309,-11.59567 h 0.006 v -55.04109 h -0.0289 c -0.0274,-1.14617 -1.3356,-8.91328 7.46673,-9.23664 v 0.0134 h 55.93405 v -0.0129 c 0.56238,-0.0413 1.08481,-0.0503 1.57045,-0.03 z M 263.60355,502.81014 H 473.3556 v 12.79043 c -0.007,0.005 -0.0141,0.0106 -0.0212,0.016 0.007,0.0702 0.014,0.14036 0.0212,0.21032 v 0.0739 h 0.008 c 4.6953,45.7199 38.60983,40.96879 41.13031,41.06209 0.0911,0.003 0.17986,0.002 0.26613,-0.004 h 51.12453 v -0.0305 c 41.46784,-1.88407 40.57971,-35.92628 40.42958,-41.32513 h 0.0331 v -12.79301 h 210.04971 v 228.19795 h 0.007 c 0.12079,1.51121 -0.5283,12.59869 -15.18047,11.94811 v -0.047 H 279.07444 v 0.0212 c -1.88596,-0.0301 -12.96416,0.33684 -15.47089,-12.55014 z" /></g><g
       id="g29"
       inkscape:label="wrench"><path
         style="display:inline;fill:#03bdec;fill-opacity:1;stroke:none;stroke-width:19;stroke-dasharray:none;stroke-opacity:1"
         d="m 328.87708,407.19374 48.41875,4.7625 24.34166,17.19792 11.90625,24.34167 7.14375,55.03333 220.92709,241.82916 -8.20209,7.14375 -72.49583,1.85209 -190.5,-195.79167 -13.49375,-6.87916 H 323.85 l -43.39167,-20.10834 -15.875,-34.66041 0.79375,-34.925 8.73125,-4.7625 29.36875,32.54375 36.77708,-8.73125 16.66875,-37.04167 z"
         id="path30"
         inkscape:label="background" /><path
         style="display:inline;fill:url(#linearGradient36);fill-opacity:1;stroke:none;stroke-width:19;stroke-dasharray:none;stroke-opacity:1;opacity:0.444"
         d="m 328.87708,407.19374 48.41875,4.7625 24.34166,17.19792 11.90625,24.34167 7.14375,55.03333 220.92709,241.82916 -8.20209,7.14375 -72.49583,1.85209 -190.5,-195.79167 -13.49375,-6.87916 H 323.85 l -43.39167,-20.10834 -15.875,-34.66041 0.79375,-34.925 8.73125,-4.7625 29.36875,32.54375 36.77708,-8.73125 16.66875,-37.04167 z"
         id="path34"
         inkscape:label="gradient" /><path
         style="display:inline;fill:none;fill-opacity:1;stroke:#000000;stroke-width:19;stroke-dasharray:none;stroke-opacity:1"
         d="m 372.68062,565.00778 c -5.23848,-4.11596 -10.85114,-6.73521 -16.83798,-5.98683 -5.98683,0.74834 -98.40863,5.23846 -91.67344,-85.31244 4.49012,-8.98027 4.86429,-13.47038 13.47039,-5.61266 7.8577,8.60608 23.19899,23.57316 25.44405,26.56658 2.24507,2.99341 33.30178,-7.85773 35.92103,-8.98025 2.61924,-1.12252 3.36759,-1.49672 5.98683,-5.61266 2.61924,-4.11597 11.22532,-28.0633 11.22532,-28.0633 0,0 -0.74835,-7.48355 -2.24507,-8.98025 -1.4967,-1.49672 -25.44405,-28.43749 -25.44405,-28.43749 0,-3.36759 -5.98684,-12.34784 16.83797,-8.2319 22.82481,4.11596 71.46788,3.74179 72.5904,85.31243 1.12255,11.59949 2.61924,16.08963 5.61266,20.20557 2.99344,4.11596 212.15855,228.99653 212.15855,228.99653 2.24507,3.36761 8.60607,13.47038 4.86431,14.96711 -3.74176,1.49669 -79.69977,2.99341 -79.69977,2.99341 -3.36759,-1.87089 -188.2112,-193.82385 -188.2112,-193.82385 z"
         id="path27"
         inkscape:label="border" /></g><g
       id="g30"
       inkscape:label="screw-driver"
       style="display:inline"><path
         style="display:inline;fill:#ff714a;fill-opacity:1;stroke:none;stroke-width:19;stroke-dasharray:none;stroke-opacity:1"
         d="m 566.73749,563.82708 16.66875,5.82083 84.93125,-87.57708 27.25208,-42.33334 49.2125,-35.45416 28.83959,29.63333 -30.42709,46.83125 -44.45,24.34167 -87.84166,89.16458 1.5875,12.7 6.35,9.78958 -8.46667,11.64167 -14.2875,10.58333 -95.25,104.775 -38.62916,5.02708 -21.69584,-6.61458 -8.73125,-15.875 8.46667,-43.12708 72.49583,-73.81875 21.69584,-12.43542 20.10833,-29.10416 z"
         id="path29"
         inkscape:label="background" /><path
         style="display:inline;fill:url(#linearGradient39);fill-opacity:1;stroke:none;stroke-width:19;stroke-dasharray:none;stroke-opacity:1;opacity:0.421"
         d="m 566.73749,563.82708 16.66875,5.82083 84.93125,-87.57708 27.25208,-42.33334 49.2125,-35.45416 28.83959,29.63333 -30.42709,46.83125 -44.45,24.34167 -87.84166,89.16458 1.5875,12.7 6.35,9.78958 -8.46667,11.64167 -14.2875,10.58333 -95.25,104.775 -38.62916,5.02708 -21.69584,-6.61458 -8.73125,-15.875 8.46667,-43.12708 72.49583,-73.81875 21.69584,-12.43542 20.10833,-29.10416 z"
         id="path38"
         inkscape:label="gradient" /><path
         id="path28"
         style="fill:none;fill-opacity:1;stroke:#000000;stroke-width:19;stroke-dasharray:none;stroke-opacity:1"
         d="m 744.23984,404.51743 c -3.6537,0.0412 -7.88199,2.26032 -11.22618,4.83278 -4.86431,3.74179 -37.04374,29.93409 -37.04374,29.93409 l -23.94737,39.28856 c 0,0 -84.56438,88.30574 -89.05452,92.79588 l 12.42922,12.80025 c -8.19622,-7.44786 -16.54129,-14.6675 -19.16421,-17.29041 -5.23849,-5.23849 -17.21203,-2.61914 -20.20548,-1.12242 -2.99341,1.49672 -14.21866,19.45741 -20.20549,27.31513 -5.98684,7.85773 -21.70255,15.71532 -21.70255,15.71532 0,0 -48.26876,47.52049 -73.71281,72.96454 -33.30181,94.66686 59.11991,62.48766 59.11991,62.48766 0,0 81.19682,-87.18346 88.68037,-95.41536 8.98025,-14.96708 16.46372,-13.84469 25.06979,-23.19911 8.60608,-9.35445 4.4901,-15.71506 0.37414,-22.82444 -0.84004,-1.45097 -2.67752,-3.58817 -5.11494,-6.11487 l 90.42704,-91.1717 45.27579,-26.56634 c 0,0 22.45079,-29.1858 27.68927,-38.91442 5.23849,-9.7286 -4.86431,-16.08945 -4.86431,-16.08945 0,0 -14.21882,-14.59308 -18.33479,-17.96067 -1.28623,-1.05237 -2.82836,-1.48375 -4.48914,-1.46502 z"
         inkscape:label="border" /><path
         id="rect29"
         style="display:inline;fill:none;stroke:#000000;stroke-width:19"
         transform="rotate(42.398415)"
         d="m 826.02966,29.571537 h 17.33021 v 0.463021 h -17.33021 z"
         inkscape:label="screw-driver-border-fill" /></g><g
       id="g31"
       inkscape:label="text"><text
         xml:space="preserve"
         style="font-style:normal;font-variant:normal;font-weight:bold;font-stretch:normal;font-size:152.254px;font-family:sans-serif;-inkscape-font-specification:'sans-serif Bold';text-align:start;writing-mode:lr-tb;direction:ltr;text-anchor:start;fill:#000000;fill-opacity:1;stroke:none;stroke-width:56.9453;stroke-dasharray:none;stroke-opacity:1"
         x="213.15039"
         y="864.43695"
         id="text31"
         transform="scale(0.90737458,1.1020807)"
         inkscape:label="toolkit"><tspan
           sodipodi:role="line"
           id="tspan31"
           style="stroke-width:56.9453"
           x="213.15039"
           y="864.43695">TOOLKIT</tspan></text><text
         xml:space="preserve"
         style="font-style:normal;font-variant:normal;font-weight:bold;font-stretch:normal;font-size:95.7266px;font-family:sans-serif;-inkscape-font-specification:'sans-serif Bold';text-align:start;writing-mode:lr-tb;direction:ltr;text-anchor:start;fill:#000000;fill-opacity:1;stroke:none;stroke-width:35.8032;stroke-dasharray:none;stroke-opacity:1"
         x="114.5201"
         y="175.03384"
         id="text30"
         transform="scale(0.88358221,1.1317566)"
         inkscape:label=".net-framework"><tspan
           sodipodi:role="line"
           id="tspan30"
           style="font-style:normal;font-variant:normal;font-weight:bold;font-stretch:normal;font-size:95.7266px;font-family:sans-serif;-inkscape-font-specification:'sans-serif Bold';fill:#000000;stroke-width:35.8032"
           x="114.5201"
           y="175.03384">.NET FRAMEWORK</tspan></text></g><path
       style="fill:none;fill-opacity:1;stroke:#000000;stroke-width:29.8139;stroke-dasharray:none;stroke-opacity:1"
       d="m 15.797471,110.3067 c 0.74642,-18.525437 -4.478511,-95.591224 95.541599,-94.850207 100.02011,0.741017 844.94601,0 860.62081,0 15.67477,0 102.25942,13.33831 91.80942,97.073257 1.493,42.23797 0.7465,851.42877 0.7465,851.42877 0,16.30239 12.6891,80.02978 -88.82384,101.51928 -39.56018,-0.741 -858.38155,-0.741 -871.07065,-1.482 -12.689126,-0.741 -94.04877,4.446 -89.570256,-92.62713 -0.74642,-53.35322 0.746417,-861.06197 0.746417,-861.06197 z"
       id="path31"
       inkscape:label="border" /></g></svg>
